<mxfile host="app.diagrams.net" agent="Mozilla/5.0 (Windows NT 10.0; Win64; x64) AppleWebKit/537.36 (KHTML, like Gecko) Chrome/130.0.0.0 Safari/537.36 Edg/130.0.0.0" version="24.8.0">
  <diagram name="第 1 页" id="LcHpUNw_ngx0D4RKD1X-">
    <mxGraphModel>
      <root>
        <mxCell id="0" />
        <mxCell id="1" parent="0" />
        <mxCell id="2" value="title software mindstorm" style="ellipse;aspect=fixed;strokeWidth=2;whiteSpace=wrap;" vertex="1" parent="1">
          <mxGeometry x="504" y="138" width="199" height="199" as="geometry" />
        </mxCell>
        <mxCell id="3" value="orientation left right" style="rounded=1;absoluteArcSize=1;arcSize=14;whiteSpace=wrap;strokeWidth=2;" vertex="1" parent="1">
          <mxGeometry x="289" y="216" width="169" height="37" as="geometry" />
        </mxCell>
        <mxCell id="4" value="nodeSpacing 50" style="rounded=1;absoluteArcSize=1;arcSize=14;whiteSpace=wrap;strokeWidth=2;" vertex="1" parent="1">
          <mxGeometry x="499" y="282" width="131" height="37" as="geometry" />
        </mxCell>
        <mxCell id="5" value="&quot;User Interface&quot;:::UI" style="rounded=1;absoluteArcSize=1;arcSize=14;whiteSpace=wrap;strokeWidth=2;" vertex="1" parent="1">
          <mxGeometry x="332" y="128" width="168" height="55" as="geometry" />
        </mxCell>
        <mxCell id="6" value="&quot;Wireframes &amp; Mockups&quot;:::WM" style="rounded=1;absoluteArcSize=1;arcSize=14;whiteSpace=wrap;strokeWidth=2;" vertex="1" parent="1">
          <mxGeometry x="62" y="159" width="204" height="55" as="geometry" />
        </mxCell>
        <mxCell id="7" value="&quot;Usability Testing&quot;:::UT" style="rounded=1;absoluteArcSize=1;arcSize=14;whiteSpace=wrap;strokeWidth=2;" vertex="1" parent="1">
          <mxGeometry x="289" y="15" width="158" height="55" as="geometry" />
        </mxCell>
        <mxCell id="8" value="&quot;Accessibility&quot;:::ACC" style="rounded=1;absoluteArcSize=1;arcSize=14;whiteSpace=wrap;strokeWidth=2;" vertex="1" parent="1">
          <mxGeometry x="45" y="67" width="220" height="55" as="geometry" />
        </mxCell>
        <mxCell id="9" value="&quot;Frontend Development&quot;:::FE" style="rounded=1;absoluteArcSize=1;arcSize=14;whiteSpace=wrap;strokeWidth=2;" vertex="1" parent="1">
          <mxGeometry x="600" y="122" width="199" height="55" as="geometry" />
        </mxCell>
        <mxCell id="10" value="&quot;HTML&quot;:::HTML" style="rounded=1;absoluteArcSize=1;arcSize=14;whiteSpace=wrap;strokeWidth=2;" vertex="1" parent="1">
          <mxGeometry x="844" y="83" width="216" height="37" as="geometry" />
        </mxCell>
        <mxCell id="11" value="&quot;CSS&quot;:::CSS" style="rounded=1;absoluteArcSize=1;arcSize=14;whiteSpace=wrap;strokeWidth=2;" vertex="1" parent="1">
          <mxGeometry x="443" y="70" width="187" height="37" as="geometry" />
        </mxCell>
        <mxCell id="12" value="&quot;JavaScript&quot;:::JS" style="rounded=1;absoluteArcSize=1;arcSize=14;whiteSpace=wrap;strokeWidth=2;" vertex="1" parent="1">
          <mxGeometry x="658" y="18" width="219" height="55" as="geometry" />
        </mxCell>
        <mxCell id="13" value="&quot;Backend Development&quot;:::BE" style="rounded=1;absoluteArcSize=1;arcSize=14;whiteSpace=wrap;strokeWidth=2;" vertex="1" parent="1">
          <mxGeometry x="282" y="288" width="200" height="55" as="geometry" />
        </mxCell>
        <mxCell id="14" value="&quot;Server side Language&quot;:::SSL" style="rounded=1;absoluteArcSize=1;arcSize=14;whiteSpace=wrap;strokeWidth=2;" vertex="1" parent="1">
          <mxGeometry x="148" y="371" width="179" height="55" as="geometry" />
        </mxCell>
        <mxCell id="15" value="&quot;Database Management&quot;:::DBM" style="rounded=1;absoluteArcSize=1;arcSize=14;whiteSpace=wrap;strokeWidth=2;" vertex="1" parent="1">
          <mxGeometry x="15" y="283" width="210" height="55" as="geometry" />
        </mxCell>
        <mxCell id="16" value="&quot;Testing&quot;:::TEST" style="rounded=1;absoluteArcSize=1;arcSize=14;whiteSpace=wrap;strokeWidth=2;" vertex="1" parent="1">
          <mxGeometry x="780" y="186" width="213" height="55" as="geometry" />
        </mxCell>
        <mxCell id="17" value="&quot;Unit Testing&quot;:::UTEST" style="rounded=1;absoluteArcSize=1;arcSize=14;whiteSpace=wrap;strokeWidth=2;" vertex="1" parent="1">
          <mxGeometry x="1048" y="236" width="183" height="55" as="geometry" />
        </mxCell>
        <mxCell id="18" value="&quot;Integration Testing&quot;:::ITEST" style="rounded=1;absoluteArcSize=1;arcSize=14;whiteSpace=wrap;strokeWidth=2;" vertex="1" parent="1">
          <mxGeometry x="1052" y="129" width="178" height="55" as="geometry" />
        </mxCell>
        <mxCell id="19" value="&quot;Deployment&quot;:::DEPLOY" style="rounded=1;absoluteArcSize=1;arcSize=14;whiteSpace=wrap;strokeWidth=2;" vertex="1" parent="1">
          <mxGeometry x="736" y="275" width="217" height="55" as="geometry" />
        </mxCell>
        <mxCell id="20" value="&quot;Continuous Integration&quot;:::CI" style="rounded=1;absoluteArcSize=1;arcSize=14;whiteSpace=wrap;strokeWidth=2;" vertex="1" parent="1">
          <mxGeometry x="791" y="380" width="181" height="55" as="geometry" />
        </mxCell>
        <mxCell id="21" value="&quot;Version Control&quot;:::VC" style="rounded=1;absoluteArcSize=1;arcSize=14;whiteSpace=wrap;strokeWidth=2;" vertex="1" parent="1">
          <mxGeometry x="1006" y="338" width="159" height="55" as="geometry" />
        </mxCell>
        <mxCell id="22" value="&quot;Monitoring &amp; Maintenance&quot;:::MM" style="rounded=1;absoluteArcSize=1;arcSize=14;whiteSpace=wrap;strokeWidth=2;" vertex="1" parent="1">
          <mxGeometry x="516" y="336" width="202" height="55" as="geometry" />
        </mxCell>
        <mxCell id="23" value="&quot;Performance Monitoring&quot;:::PM" style="rounded=1;absoluteArcSize=1;arcSize=14;whiteSpace=wrap;strokeWidth=2;" vertex="1" parent="1">
          <mxGeometry x="570" y="443" width="185" height="55" as="geometry" />
        </mxCell>
        <mxCell id="24" value="&quot;Security Updates&quot;:::SU" style="rounded=1;absoluteArcSize=1;arcSize=14;whiteSpace=wrap;strokeWidth=2;" vertex="1" parent="1">
          <mxGeometry x="372" y="416" width="164" height="55" as="geometry" />
        </mxCell>
        <mxCell id="25" style="endArrow=none" edge="1" parent="1" source="2" target="3">
          <mxGeometry relative="1" as="geometry" />
        </mxCell>
        <mxCell id="26" style="endArrow=none" edge="1" parent="1" source="2" target="4">
          <mxGeometry relative="1" as="geometry" />
        </mxCell>
        <mxCell id="27" style="endArrow=none" edge="1" parent="1" source="2" target="5">
          <mxGeometry relative="1" as="geometry" />
        </mxCell>
        <mxCell id="28" style="endArrow=none" edge="1" parent="1" source="2" target="9">
          <mxGeometry relative="1" as="geometry" />
        </mxCell>
        <mxCell id="29" style="endArrow=none" edge="1" parent="1" source="2" target="13">
          <mxGeometry relative="1" as="geometry" />
        </mxCell>
        <mxCell id="30" style="endArrow=none" edge="1" parent="1" source="2" target="16">
          <mxGeometry relative="1" as="geometry" />
        </mxCell>
        <mxCell id="31" style="endArrow=none" edge="1" parent="1" source="2" target="19">
          <mxGeometry relative="1" as="geometry" />
        </mxCell>
        <mxCell id="32" style="endArrow=none" edge="1" parent="1" source="2" target="22">
          <mxGeometry relative="1" as="geometry" />
        </mxCell>
        <mxCell id="33" style="endArrow=none" edge="1" parent="1" source="5" target="6">
          <mxGeometry relative="1" as="geometry" />
        </mxCell>
        <mxCell id="34" style="endArrow=none" edge="1" parent="1" source="5" target="7">
          <mxGeometry relative="1" as="geometry" />
        </mxCell>
        <mxCell id="35" style="endArrow=none" edge="1" parent="1" source="5" target="8">
          <mxGeometry relative="1" as="geometry" />
        </mxCell>
        <mxCell id="36" style="endArrow=none" edge="1" parent="1" source="9" target="10">
          <mxGeometry relative="1" as="geometry" />
        </mxCell>
        <mxCell id="37" style="endArrow=none" edge="1" parent="1" source="9" target="11">
          <mxGeometry relative="1" as="geometry" />
        </mxCell>
        <mxCell id="38" style="endArrow=none" edge="1" parent="1" source="9" target="12">
          <mxGeometry relative="1" as="geometry" />
        </mxCell>
        <mxCell id="39" style="endArrow=none" edge="1" parent="1" source="13" target="14">
          <mxGeometry relative="1" as="geometry" />
        </mxCell>
        <mxCell id="40" style="endArrow=none" edge="1" parent="1" source="13" target="15">
          <mxGeometry relative="1" as="geometry" />
        </mxCell>
        <mxCell id="41" style="endArrow=none" edge="1" parent="1" source="16" target="17">
          <mxGeometry relative="1" as="geometry" />
        </mxCell>
        <mxCell id="42" style="endArrow=none" edge="1" parent="1" source="16" target="18">
          <mxGeometry relative="1" as="geometry" />
        </mxCell>
        <mxCell id="43" style="endArrow=none" edge="1" parent="1" source="19" target="20">
          <mxGeometry relative="1" as="geometry" />
        </mxCell>
        <mxCell id="44" style="endArrow=none" edge="1" parent="1" source="19" target="21">
          <mxGeometry relative="1" as="geometry" />
        </mxCell>
        <mxCell id="45" style="endArrow=none" edge="1" parent="1" source="22" target="23">
          <mxGeometry relative="1" as="geometry" />
        </mxCell>
        <mxCell id="46" style="endArrow=none" edge="1" parent="1" source="22" target="24">
          <mxGeometry relative="1" as="geometry" />
        </mxCell>
      </root>
    </mxGraphModel>
  </diagram>
</mxfile>
